# xmcd
#
# Track frame offsets:
#	150
#	16923
#	29506
#	48097
#	64372
#	75385
#	97616
#	113525
#	128160
#	145397
#	160554
#	175885
#	191077
#	206156
#	220410
#	233630
#	246578
#	264882
#	280260
#	296483
#
# Disc length: 4170 seconds
#
# Revision: 0
# Processed by: cddbd v1.5.2PL0 Copyright (c) Steve Scherf et al.
# Submitted via: EasyCDDAExtractor 8.2.1.1
#
DISCID=18104814
DTITLE=ANDRE E ADRIANO - AO VIVO
DYEAR=2008
DGENRE=Country
TTITLE0=A JRIPOCA VAI PIAR
TTITLE1=VIRA E MEXE
TTITLE2=VAI-SACRAMENTO
TTITLE3=GOSTOSO SENTIMENTO
TTITLE4=REI DA BALADA
TTITLE5=NÃO QUERO FALAR COM ELA-ENTRE TAPAS E BEIJOS
TTITLE6=AMEI
TTITLE7=MORDIDA DE AMOR
TTITLE8=PERDOA
TTITLE9=TER DE VOLTA O SEU AMOR
TTITLE10=VOU GASTAR MEUS 10 REAIS
TTITLE11=DUVIDO MUITO
TTITLE12=GOIANO E MINEIRO
TTITLE13=TÁ SOBRANDO MULHER
TTITLE14=TO VIRADO NO ARREIO
TTITLE15=O FORA
TTITLE16=FOLIA DE REIS
TTITLE17=DOSE DE PAIXÃO-AGUA DE COCO
TTITLE18=RAPADURA
TTITLE19=BEBER, CAIR E LEVANTAR
EXTD=
EXTT0=
EXTT1=
EXTT2=
EXTT3=
EXTT4=
EXTT5=
EXTT6=
EXTT7=
EXTT8=
EXTT9=
EXTT10=
EXTT11=
EXTT12=
EXTT13=
EXTT14=
EXTT15=
EXTT16=
EXTT17=
EXTT18=
EXTT19=
PLAYORDER=
